<svg xmlns="http://www.w3.org/2000/svg" width="1000" height="373"><g transform="translate(-.606 .462)"><svg xmlns="http://www.w3.org/2000/svg" xmlns:xlink="http://www.w3.org/1999/xlink" width="1000" height="373" data-background-color="#ffffff" viewBox="0 0 396 148"><g transform="translate(.24 -.183)"><svg width="395.52" height="148.366" viewBox="0 0 395.52 148.366"><g><svg width="395.52" height="148.366" viewBox="0 0 395.52 148.366"><g><svg width="395.52" height="148.366" viewBox="0 0 395.52 148.366"><g><svg width="395.52" height="148.366" viewBox="0 0 395.52 148.366"><g><path fill="none" stroke="#8dbdff" stroke-width="9.018" d="M0 0h395.52v109.731H0z" data-fill-palette-color="none" data-stroke-palette-color="tertiary"/><path fill="#8dbdff" d="M0 109.731h395.52v38.635H0z" data-fill-palette-color="tertiary"/></g><g><svg width="395.52" height="109.731" viewBox="0 0 395.52 109.731"><g transform="translate(23.608 23.608)"><svg width="348.305" height="62.516" data-palette-color="#8dbdff" viewBox="0 -50 243.74 43.75"><path fill="#8dbdff" d="M37.5-6.25H6.25v-6.25H0v-6.25h12.5v6.25h18.75V-25h-25v-6.25H0v-12.5h6.25V-50H37.5v6.25h6.25v6.25h-12.5v-6.25H12.5v12.5h25V-25h6.25v12.5H37.5v6.25Zm25 0H50V-50h12.5v18.75h6.25v-6.25H75v-6.25h6.25V-50h12.5v6.25H87.5v6.25h-6.25v6.25H75V-25h6.25v6.25h6.25v6.25h6.25v6.25H75v-6.25h-6.25v-6.25H62.5v12.5Zm75 0h-31.25v-6.25H100V-50h12.5v37.5h18.75V-50h12.5v37.5h-6.25v6.25Zm56.24 0h-37.5V-50h12.5v37.5h25v6.25Zm50 0h-37.5V-50h12.5v37.5h25v6.25Z" class="undefined-text-0" data-fill-palette-color="primary"/></svg></g></svg></g></svg></g></svg></g></svg></g></svg></g></svg></g></svg>